<?xml version="1.0" standalone="no"?>
<!DOCTYPE svg PUBLIC "-//W3C//DTD SVG 20010904//EN"
 "http://www.w3.org/TR/2001/REC-SVG-20010904/DTD/svg10.dtd">
<svg version="1.0" xmlns="http://www.w3.org/2000/svg"
 width="500.000000pt" height="254.000000pt" viewBox="0 0 500.000000 254.000000"
 preserveAspectRatio="xMidYMid meet">
<metadata>
Created by potrace 1.13, written by Peter Selinger 2001-2015
</metadata>
<g transform="translate(0.000000,254.000000) scale(0.100000,-0.100000)"
fill="#000000" stroke="none">
<path d="M4607 2528 c-27 -20 -32 -102 -13 -196 9 -45 19 -90 23 -99 14 -42
-38 25 -79 101 -51 94 -67 107 -105 86 -46 -26 -60 -61 -45 -117 17 -66 83
-200 121 -247 17 -21 31 -42 31 -45 0 -4 -20 -12 -44 -19 -54 -14 -106 -56
-106 -86 0 -12 7 -31 15 -43 14 -20 23 -22 103 -20 80 2 91 0 129 -25 23 -15
54 -30 70 -34 15 -4 36 -13 45 -21 20 -18 38 -95 38 -167 0 -86 -56 -150 -125
-144 -26 3 -41 19 -118 133 -126 184 -222 301 -366 446 -111 111 -251 229
-271 229 -4 0 -3 -25 2 -55 4 -31 7 -149 6 -263 l-3 -207 -1957 -3 -1958 -2 0
-575 0 -575 1855 0 c1020 0 1855 -3 1855 -8 0 -7 -52 -84 -90 -132 -33 -43
-35 -76 -6 -104 27 -28 73 -35 94 -14 9 9 12 -14 12 -105 0 -112 1 -119 25
-142 30 -31 80 -33 133 -6 20 11 89 60 152 111 138 109 220 152 300 158 107 8
179 -41 291 -199 88 -124 110 -142 168 -136 113 13 161 122 161 367 0 252 -45
460 -170 795 -32 87 -25 183 20 268 32 60 33 67 39 212 4 89 11 159 19 172 7
12 28 34 48 49 66 51 85 125 60 242 -22 103 -20 159 9 236 40 106 32 136 -38
136 -56 0 -91 -38 -119 -134 -12 -42 -25 -76 -29 -76 -11 0 -28 49 -43 125
-19 93 -31 122 -55 134 -26 15 -63 14 -84 -1z m-4109 -1370 l-3 -553 -235 0
-235 0 -3 553 -2 552 240 0 240 0 -2 -552z m3413 548 c8 -8 -10 -246 -26 -351
-18 -118 -55 -202 -141 -326 -53 -76 -59 -88 -62 -145 -3 -42 2 -79 13 -115
10 -29 18 -78 19 -109 l1 -55 -775 -3 c-426 -1 -779 0 -785 2 -7 2 -9 194 -7
555 l2 551 879 0 c482 0 880 -2 882 -4z m322 -151 c9 -20 17 -46 17 -59 0 -39
-42 -90 -86 -105 -37 -13 -44 -12 -80 5 -34 17 -39 23 -38 51 2 46 36 87 96
117 29 14 57 26 63 26 6 0 19 -16 28 -35z m-2822 -26 c48 -16 96 -55 116 -92
10 -21 18 -66 21 -129 l5 -98 -97 0 -96 0 0 88 c0 94 -7 116 -36 110 -18 -3
-19 -16 -19 -243 0 -227 1 -240 19 -243 28 -6 36 15 36 101 l0 77 95 0 95 0 0
-55 c0 -93 -18 -152 -58 -191 -69 -67 -194 -81 -292 -31 -35 17 -51 34 -70 72
-24 49 -25 55 -24 275 0 220 0 226 24 270 46 83 176 124 281 89z m3132 -46
c102 -168 213 -424 272 -627 61 -209 77 -395 54 -616 -11 -114 -28 -157 -63
-166 -45 -11 -60 1 -128 96 -85 118 -136 170 -202 207 -45 25 -61 28 -141 28
-80 0 -97 -3 -150 -30 -63 -31 -138 -88 -215 -160 -100 -95 -161 -118 -181
-67 -27 67 14 377 112 861 40 198 54 249 71 264 27 23 33 22 57 -12 12 -16 44
-41 73 -55 127 -64 305 -7 369 116 29 56 42 130 31 172 -9 29 -7 46 4 46 1 0
18 -26 37 -57z m-3608 27 c75 -28 114 -110 102 -214 -7 -54 -40 -96 -75 -96
-9 0 -1 -8 18 -18 57 -28 72 -69 68 -192 -4 -118 -18 -151 -70 -169 -17 -6
-105 -11 -199 -11 l-169 0 0 353 c0 195 3 357 8 362 10 11 281 -1 317 -15z
m838 -7 c8 -16 32 -84 53 -153 l39 -125 5 150 5 150 75 0 75 0 3 -357 2 -358
-85 0 -84 0 -27 88 c-14 48 -34 112 -44 142 l-18 55 -1 -142 -1 -143 -80 0
-80 0 0 353 c0 195 3 357 7 360 3 4 37 7 74 7 65 0 69 -2 82 -27z"/>
<path d="M320 1187 c0 -173 -2 -316 -4 -318 -2 -2 -34 -2 -70 -1 l-66 4 0 79
0 79 -30 0 -30 0 0 -88 c0 -127 5 -132 130 -132 76 0 102 4 114 16 14 13 16
59 16 345 l0 329 -30 0 -30 0 0 -313z"/>
<path d="M2357 1482 c-15 -16 -17 -54 -17 -329 0 -288 1 -311 18 -326 15 -14
40 -17 125 -17 133 0 137 4 137 132 l0 88 -30 0 -29 0 -3 -81 -3 -81 -75 0
-75 0 0 288 0 289 75 0 75 0 3 -77 3 -78 29 0 30 0 0 83 c0 123 -4 127 -139
127 -92 0 -110 -3 -124 -18z"/>
<path d="M3438 1489 c-16 -9 -18 -26 -18 -129 l0 -120 -25 0 c-20 0 -25 -5
-25 -25 0 -20 5 -25 25 -25 l25 0 0 -191 0 -190 26 3 26 3 2 185 1 185 38 3
c31 3 37 7 37 27 0 20 -6 24 -37 27 l-38 3 0 100 0 100 43 3 c37 3 42 6 42 28
0 22 -3 24 -52 24 -29 0 -61 -5 -70 -11z"/>
<path d="M2732 1228 c-17 -17 -17 -389 0 -406 15 -15 181 -16 209 -2 18 10 19
23 19 205 0 182 -1 195 -19 205 -28 14 -194 13 -209 -2z m168 -203 l0 -166
-62 3 -63 3 -3 150 c-1 82 0 155 2 162 4 9 26 13 66 13 l60 0 0 -165z"/>
<path d="M3060 1023 l0 -213 25 0 25 0 0 184 0 183 46 7 c91 12 83 29 86 -181
l3 -188 28 -3 27 -3 0 204 c0 152 -3 207 -13 215 -7 6 -57 10 -120 9 l-107 -2
0 -212z"/>
</g>
</svg>
